<svg width="22" height="22" viewBox="0 0 22 22" fill="none" xmlns="http://www.w3.org/2000/svg">
<path d="M19.25 1.375C20.0094 1.375 20.625 1.99061 20.625 2.75V19.25C20.625 20.0094 20.0094 20.625 19.25 20.625H2.75C1.99061 20.625 1.375 20.0094 1.375 19.25V2.75C1.375 1.99061 1.99061 1.375 2.75 1.375H19.25ZM2.75 0C1.23122 0 0 1.23122 0 2.75V19.25C0 20.7688 1.23122 22 2.75 22H19.25C20.7688 22 22 20.7688 22 19.25V2.75C22 1.23122 20.7688 0 19.25 0H2.75Z" fill="#1B1B1F"/>
<path d="M15.0833 6.8333C15.486 6.43057 16.139 6.43057 16.5417 6.8333C16.9395 7.23108 16.9444 7.873 16.5563 8.27677L11.0671 15.1384C11.0591 15.1483 11.0507 15.1577 11.0417 15.1667C10.639 15.5694 9.98602 15.5694 9.58329 15.1667L5.94442 11.5278C5.54169 11.1251 5.54169 10.4722 5.94442 10.0694C6.34715 9.6667 7.0001 9.6667 7.40283 10.0694L10.2814 12.948L15.0559 6.86414C15.0644 6.85332 15.0736 6.84302 15.0833 6.8333Z" fill="#1B1B1F"/>
</svg>
