<svg width="16" height="16" viewBox="0 0 16 16" fill="none" xmlns="http://www.w3.org/2000/svg">
<path fill-rule="evenodd" clip-rule="evenodd" d="M13.6832 8.51078e-06C13.9499 -0.0011511 14.206 0.10429 14.3946 0.292892L15.5352 1.43352C15.9222 1.82045 15.9263 2.44653 15.5444 2.83846L6.66158 11.9557C6.56189 12.058 6.44143 12.1377 6.30832 12.1896L4.36301 12.9474C3.99179 13.092 3.57015 13.0025 3.28972 12.7195C3.0093 12.4366 2.92358 12.0141 3.07154 11.6442L3.85279 9.69111C3.902 9.56809 3.97517 9.45607 4.06804 9.36157L12.9743 0.299067C13.1612 0.108833 13.4164 0.00116812 13.6832 8.51078e-06ZM4.78127 10.0625L4.00002 12.0156L5.94533 11.2578L14.8281 2.14062L13.6875 0.999999L4.78127 10.0625Z" />
<path fill-rule="evenodd" clip-rule="evenodd" d="M0 14.3929C0 15.2805 0.719543 16 1.60714 16H13.3929C14.2805 16 15 15.2805 15 14.3929V7.96429C15 7.66842 14.7602 7.42857 14.4643 7.42857C14.1684 7.42857 13.9286 7.66842 13.9286 7.96429V14.3929C13.9286 14.6887 13.6887 14.9286 13.3929 14.9286H1.60714C1.31128 14.9286 1.07143 14.6887 1.07143 14.3929V2.60714C1.07143 2.31128 1.31128 2.07143 1.60714 2.07143H8.57143C8.86729 2.07143 9.10714 1.83158 9.10714 1.53571C9.10714 1.23985 8.86729 1 8.57143 1H1.60714C0.719542 1 0 1.71954 0 2.60714V14.3929Z" />
</svg>
