<svg width="120" height="113" viewBox="0 0 120 113" fill="none" xmlns="http://www.w3.org/2000/svg">
<path d="M22.2803 3.11906C23.7052 1.45672 25.7853 0.5 27.9748 0.5H92.0252C94.2147 0.5 96.2948 1.45672 97.7197 3.11906L117.292 25.953C119.039 27.992 120 30.5889 120 33.2744V35.1875C120 45.0251 112.025 53 102.188 53C96.4715 53 91.3844 50.3076 88.125 46.1218C84.8657 50.3076 79.7785 53 74.0625 53C68.3465 53 63.2593 50.3076 60 46.1218C56.7407 50.3076 51.6535 53 45.9375 53C40.2215 53 35.1343 50.3076 31.875 46.1218C28.6157 50.3076 23.5285 53 17.8125 53C7.97493 53 0 45.0251 0 35.1875V33.2744C0 30.5889 0.960661 27.992 2.70836 25.953L22.2803 3.11906ZM35.625 35.1875C35.625 40.8829 40.2421 45.5 45.9375 45.5C51.6329 45.5 56.25 40.8829 56.25 35.1875C56.25 33.1164 57.9289 31.4375 60 31.4375C62.0711 31.4375 63.75 33.1164 63.75 35.1875C63.75 40.8829 68.3671 45.5 74.0625 45.5C79.7579 45.5 84.375 40.8829 84.375 35.1875C84.375 33.1164 86.0539 31.4375 88.125 31.4375C90.1961 31.4375 91.875 33.1164 91.875 35.1875C91.875 40.8829 96.4921 45.5 102.188 45.5C107.883 45.5 112.5 40.8829 112.5 35.1875V33.2744C112.5 32.3793 112.18 31.5136 111.597 30.834L92.0252 8H27.9748L8.40279 30.834C7.82022 31.5136 7.5 32.3793 7.5 33.2744V35.1875C7.5 40.8829 12.1171 45.5 17.8125 45.5C23.5079 45.5 28.125 40.8829 28.125 35.1875C28.125 33.1164 29.8039 31.4375 31.875 31.4375C33.9461 31.4375 35.625 33.1164 35.625 35.1875ZM11.25 56.75C13.3211 56.75 15 58.4289 15 60.5V105.5H105V60.5C105 58.4289 106.679 56.75 108.75 56.75C110.821 56.75 112.5 58.4289 112.5 60.5V105.5H116.25C118.321 105.5 120 107.179 120 109.25C120 111.321 118.321 113 116.25 113H3.75C1.67893 113 0 111.321 0 109.25C0 107.179 1.67893 105.5 3.75 105.5H7.5V60.5C7.5 58.4289 9.17893 56.75 11.25 56.75Z" fill="#E1E1E6"/>
<path d="M51.4745 65.6967C50.01 64.2322 47.6356 64.2322 46.1712 65.6967C44.7067 67.1612 44.7067 69.5355 46.1712 71L54.7695 79.5984L46.1712 88.1967C44.7067 89.6612 44.7067 92.0355 46.1712 93.5C47.6356 94.9645 50.01 94.9645 51.4745 93.5L60.0728 84.9016L68.6712 93.5C70.1356 94.9645 72.51 94.9645 73.9745 93.5C75.4389 92.0355 75.4389 89.6612 73.9745 88.1967L65.3761 79.5984L73.9745 71C75.4389 69.5355 75.4389 67.1612 73.9745 65.6967C72.51 64.2322 70.1356 64.2322 68.6712 65.6967L60.0728 74.2951L51.4745 65.6967Z" fill="#E1E1E6"/>
</svg>
