<svg width="60" height="40" viewBox="0 0 60 40" fill="currentColor" xmlns="http://www.w3.org/2000/svg">
<path d="M20.0738 16.8642C20.6716 16.7512 21.2511 17.1275 21.3682 17.7048L22.0042 20.8406L25.2513 20.2265C25.8491 20.1134 26.4286 20.4897 26.5457 21.067C26.6628 21.6443 26.2731 22.204 25.6753 22.317L22.4282 22.9312L23.0641 26.067C23.1812 26.6443 22.7915 27.204 22.1937 27.317C21.5959 27.4301 21.0164 27.0538 20.8994 26.4765L20.2634 23.3406L17.0163 23.9548C16.4185 24.0679 15.839 23.6915 15.7219 23.1142C15.6048 22.537 15.9945 21.9773 16.5923 21.8642L19.8394 21.2501L19.2035 18.1142C19.0864 17.537 19.4761 16.9773 20.0738 16.8642Z"/>
<path d="M32.2144 10.2265L36.2422 30.0868C36.7105 32.3959 35.1518 34.6345 32.7606 35.0868L15.4426 38.3623C13.0515 38.8146 10.7334 37.3092 10.2651 35.0001L5.17742 9.91341C4.70911 7.60425 6.26786 5.36567 8.65898 4.91341L20.5651 2.66147L32.2144 10.2265ZM25.7202 11.4548C23.9268 11.794 22.1883 10.665 21.8371 8.93314L20.9891 4.75203L9.08295 7.00397C7.88739 7.2301 7.10802 8.34939 7.34218 9.50397L12.4299 34.5906C12.664 35.7452 13.8231 36.4979 15.0186 36.2717L32.3367 32.9962C33.5322 32.7701 34.3116 31.6508 34.0774 30.4962L30.0497 10.6359L25.7202 11.4548Z"/>
<rect x="30" y="3.40869" width="23.5294" height="26.1314"/>
<path d="M42.3562 13.9892C42.3562 15.754 40.8748 17.1846 39.0474 17.1846C37.22 17.1846 35.7386 15.754 35.7386 13.9892C35.7386 12.2244 37.22 10.7938 39.0474 10.7938C40.8748 10.7938 42.3562 12.2244 42.3562 13.9892Z"/>
<path d="M51.1764 2.27271H33.5293C31.0928 2.27271 29.1176 4.18022 29.1176 6.53325V32.0965C29.1176 34.4496 31.0928 36.3571 33.5293 36.3571H51.1764C53.6129 36.3571 55.5882 34.4496 55.5882 32.0965V6.53325C55.5882 4.18022 53.6129 2.27271 51.1764 2.27271ZM31.3234 6.53325C31.3234 5.35674 32.311 4.40298 33.5293 4.40298H51.1764C52.3947 4.40298 53.3823 5.35674 53.3823 6.53325V23.5754L48.7882 19.1388C48.3063 18.6734 47.5069 18.7373 47.1108 19.2729L42.3529 25.7057L37.5766 22.9382C37.1426 22.6867 36.5871 22.7528 36.2292 23.0984L31.3234 27.836V6.53325Z"/>
</svg>
