<svg width="28" height="28" viewBox="0 0 28 28" xmlns="http://www.w3.org/2000/svg">
<path d="M0.9 1C0.40293 1 0 1.40295 0 1.9C0 2.39706 0.40293 2.8 0.9 2.8H3.89064C5.3802 6.48925 6.84741 10.1852 8.325 13.8813L6.96564 17.1531C6.85176 17.4259 6.8838 17.7548 7.04817 18.0005C7.21257 18.2462 7.50441 18.4012 7.8 18.4H22.8C23.2755 18.4066 23.7128 17.9755 23.7128 17.5C23.7128 17.0245 23.2755 16.5933 22.8 16.6H9.15L9.92814 14.7438L24.375 13.5906C24.7531 13.5609 25.0954 13.2663 25.1812 12.8969L26.9812 5.09688C27.099 4.57151 26.6384 3.99825 26.1 4H6.30936L5.33436 1.5625C5.20086 1.23255 4.85592 1.00001 4.5 1H0.9ZM7.03125 5.8H24.9656L23.5687 11.8563L9.89064 12.9438L7.03125 5.8ZM10.8 19C9.15381 19 7.8 20.3538 7.8 22C7.8 23.6462 9.15381 25 10.8 25C12.4462 25 13.8 23.6462 13.8 22C13.8 20.3538 12.4462 19 10.8 19ZM19.8 19C18.1538 19 16.8 20.3538 16.8 22C16.8 23.6462 18.1538 25 19.8 25C21.4462 25 22.8 23.6462 22.8 22C22.8 20.3538 21.4462 19 19.8 19ZM10.8 20.8C11.4734 20.8 12 21.3266 12 22C12 22.6734 11.4734 23.2 10.8 23.2C10.1266 23.2 9.6 22.6734 9.6 22C9.6 21.3266 10.1266 20.8 10.8 20.8ZM19.8 20.8C20.4733 20.8 21 21.3266 21 22C21 22.6734 20.4733 23.2 19.8 23.2C19.1266 23.2 18.6 22.6734 18.6 22C18.6 21.3266 19.1266 20.8 19.8 20.8Z" />
</svg>
