<svg width="24" height="24" viewBox="0 0 24 24" xmlns="http://www.w3.org/2000/svg">
<path fill-rule="evenodd" clip-rule="evenodd" d="M0.972975 0C0.43562 0 0 0.43562 0 0.972975V9.40542C0 9.94276 0.43562 10.3784 0.972975 10.3784H9.40542C9.94276 10.3784 10.3784 9.94276 10.3784 9.40542V0.972975C10.3784 0.43562 9.94276 0 9.40542 0H0.972975ZM1.94595 8.43245V1.94595H8.43245V8.43245H1.94595Z" />
<path fill-rule="evenodd" clip-rule="evenodd" d="M13.9459 0C13.4085 0 12.9729 0.43562 12.9729 0.972975V9.40542C12.9729 9.94276 13.4085 10.3784 13.9459 10.3784H22.3783C22.9157 10.3784 23.3513 9.94276 23.3513 9.40542V0.972975C23.3513 0.43562 22.9157 0 22.3783 0H13.9459ZM14.9188 8.43245V1.94595H21.4053V8.43245H14.9188Z" />
<path fill-rule="evenodd" clip-rule="evenodd" d="M0 13.9459C0 13.4085 0.43562 12.9729 0.972975 12.9729H9.40542C9.94276 12.9729 10.3784 13.4085 10.3784 13.9459V22.3783C10.3784 22.9157 9.94276 23.3513 9.40542 23.3513H0.972975C0.43562 23.3513 0 22.9157 0 22.3783V13.9459ZM1.94595 14.9188V21.4053H8.43245V14.9188H1.94595Z" />
<path fill-rule="evenodd" clip-rule="evenodd" d="M13.9459 12.9729C13.4085 12.9729 12.9729 13.4085 12.9729 13.9459V18.4864C12.9729 21.5276 15.4453 23.9999 18.4864 23.9999C21.5276 23.9999 23.9999 21.5276 23.9999 18.4864C23.9999 15.4453 21.5276 12.9729 18.4864 12.9729H13.9459ZM14.9188 18.4864V14.9188H18.4864C20.4529 14.9188 22.054 16.52 22.054 18.4864C22.054 20.4529 20.4529 22.054 18.4864 22.054C16.52 22.054 14.9188 20.4529 14.9188 18.4864Z" />
</svg>
