<svg width="28" height="28" viewBox="0 0 28 28" xmlns="http://www.w3.org/2000/svg">
<path d="M22.4076 2.89448V9.44801C22.4076 9.75385 22.2874 10.0433 22.0742 10.2617C21.861 10.4747 21.5658 10.5949 21.2651 10.5949C20.959 10.5949 20.6693 10.4747 20.4506 10.2617C20.2319 10.0433 20.1171 9.75931 20.1171 9.44801V2.89448C20.1171 2.55042 19.8602 2.29374 19.5158 2.29374H2.8973C2.55291 2.29374 2.29598 2.55042 2.29598 2.89448V23.8658C2.29598 24.2099 2.55291 24.4665 2.8973 24.4665H12.5185C12.8192 24.4665 13.1144 24.5867 13.3276 24.7997C13.5463 25.0181 13.6665 25.3076 13.6665 25.6134C13.6665 26.2469 13.1527 26.7603 12.5185 26.7603H2.8973C1.30105 26.7603 0 25.4605 0 23.8658V2.89448C0 1.29978 1.30105 0 2.8973 0H19.5158C20.2866 0 21.0137 0.30037 21.5603 0.85196C22.107 1.40355 22.4076 2.12444 22.4076 2.89448Z" />
<path d="M12.2015 16.4206C12.2015 16.6772 12.1031 16.9175 11.9227 17.0978C11.7478 17.2725 11.4963 17.3763 11.2449 17.3763H4.68493C4.428 17.3763 4.18747 17.278 4.00707 17.0978C3.82667 16.9175 3.72827 16.6772 3.72827 16.4206C3.72827 15.8963 4.16013 15.4648 4.68493 15.4648H11.2449C11.5018 15.4648 11.7423 15.5631 11.9227 15.7434C12.0977 15.9236 12.2015 16.1693 12.2015 16.4206Z" />
<path d="M12.2015 20.455C12.2015 20.7062 12.0977 20.952 11.9227 21.1322C11.7478 21.307 11.4963 21.4107 11.2503 21.4107H4.68493C4.428 21.4107 4.18747 21.3124 4.00707 21.1322C3.82667 20.952 3.72827 20.7117 3.72827 20.455C3.72827 19.9307 4.16013 19.4993 4.68493 19.4993H11.2449C11.5018 19.4993 11.7423 19.5976 11.9227 19.7778C12.0977 19.958 12.2015 20.2038 12.2015 20.455Z" />
<path d="M16.9301 10.1689H16.6076C16.3889 9.00017 15.8258 7.94068 14.9785 7.09418C14.1312 6.24222 13.0652 5.68517 11.9008 5.46672V5.1445C11.9008 4.85505 11.786 4.57653 11.5783 4.37446C11.376 4.17239 11.0917 4.05225 10.8075 4.05225C10.5177 4.05225 10.239 4.16693 10.0367 4.37446C9.82896 4.58199 9.71416 4.85505 9.71416 5.1445V5.46672C8.54977 5.68517 7.48378 6.24768 6.63646 7.09418C5.78913 7.94068 5.22607 9.00017 5.00741 10.1689H4.68488C4.08355 10.1689 3.59155 10.6604 3.59155 11.2611C3.59155 11.5506 3.70635 11.8291 3.90862 12.0312C4.11635 12.2387 4.38968 12.3534 4.68488 12.3534H16.9301C17.2198 12.3534 17.4986 12.2387 17.7063 12.0312C17.9141 11.8236 18.0234 11.5506 18.0234 11.2611C18.0234 10.6604 17.5314 10.1689 16.9301 10.1689ZM7.25418 10.1689C7.46738 9.46437 7.89378 8.83087 8.46777 8.36666C9.1347 7.83145 9.94376 7.54747 10.8075 7.54747C11.6712 7.54747 12.4803 7.83145 13.1472 8.36666C13.7212 8.83087 14.1476 9.46437 14.3608 10.1689H7.25418Z" />
<path d="M28 20.873C28 24.8051 24.8021 28 20.8661 28C16.9301 28 13.7322 24.8051 13.7322 20.873C13.7322 16.9409 16.9301 13.746 20.8661 13.746H21.4838L21.0246 13.2873C20.631 12.8941 20.631 12.2496 21.0246 11.8564C21.216 11.6653 21.4674 11.5615 21.7408 11.5615C21.8774 11.5615 22.0086 11.5888 22.1289 11.638C22.2492 11.6871 22.3585 11.7636 22.4569 11.8564L24.6435 14.0409C24.8349 14.2321 24.9387 14.4833 24.9387 14.7564C24.9387 15.0294 24.8349 15.2807 24.6435 15.4718L22.4569 17.6563C22.0633 18.0495 21.4182 18.0495 21.0246 17.6563C20.631 17.2631 20.631 16.6187 21.0246 16.2255L21.4838 15.7667H20.8661C19.494 15.7667 18.2093 16.2965 17.2472 17.2576C16.2851 18.2188 15.7548 19.5022 15.7548 20.873C15.7548 22.2438 16.2851 23.5272 17.2472 24.4884C18.2093 25.4496 19.494 25.9793 20.8661 25.9793C22.2382 25.9793 23.5229 25.4496 24.485 24.4884C25.4471 23.5272 25.9774 22.2438 25.9774 20.873C25.9774 20.6054 26.0813 20.3487 26.2726 20.1576C26.4639 19.9664 26.7154 19.8627 26.9887 19.8627C27.5463 19.8627 28 20.316 28 20.873Z" />
</svg>
