<svg width="286" height="44" viewBox="0 0 286 44" fill="none" xmlns="http://www.w3.org/2000/svg">
<path d="M71.844 8.648C73.932 8.648 75.756 9.008 77.316 9.728C78.876 10.448 80.076 11.468 80.916 12.788C81.78 14.084 82.212 15.608 82.212 17.36C82.212 19.088 81.78 20.612 80.916 21.932C80.076 23.228 78.876 24.236 77.316 24.956C75.756 25.652 73.932 26 71.844 26H67.992V35H62.772V8.648H71.844ZM71.268 21.572C72.9 21.572 74.208 21.224 75.192 20.528C76.176 19.808 76.668 18.752 76.668 17.36C76.668 15.968 76.176 14.912 75.192 14.192C74.208 13.448 72.9 13.076 71.268 13.076H67.992V21.572H71.268ZM92.6981 15.884C94.3541 15.884 95.8181 16.256 97.0901 17C98.3861 17.72 99.3821 18.752 100.078 20.096C100.798 21.416 101.158 22.94 101.158 24.668C101.158 25.436 101.086 26.216 100.942 27.008H88.5581C88.7741 28.4 89.2781 29.456 90.0701 30.176C90.8621 30.872 91.8461 31.22 93.0221 31.22C93.8621 31.22 94.6061 31.04 95.2541 30.68C95.9261 30.296 96.4421 29.732 96.8021 28.988L100.474 31.148C99.9701 32.516 98.9981 33.572 97.5581 34.316C96.1421 35.06 94.5581 35.432 92.8061 35.432C91.1261 35.432 89.5661 35.06 88.1261 34.316C86.6861 33.572 85.5221 32.456 84.6341 30.968C83.7701 29.48 83.3381 27.692 83.3381 25.604C83.3381 23.54 83.7701 21.776 84.6341 20.312C85.5221 18.848 86.6741 17.744 88.0901 17C89.5061 16.256 91.0421 15.884 92.6981 15.884ZM92.5541 19.952C91.5701 19.952 90.7301 20.264 90.0341 20.888C89.3381 21.512 88.8701 22.388 88.6301 23.516H96.0461C95.9501 22.364 95.5781 21.488 94.9301 20.888C94.3061 20.264 93.5141 19.952 92.5541 19.952ZM112.341 15.884C114.861 15.884 116.829 16.604 118.245 18.044C119.661 19.46 120.369 21.488 120.369 24.128V35H116.157C116.133 34.808 116.097 34.496 116.049 34.064C116.025 33.608 115.977 33.212 115.905 32.876C115.353 33.74 114.633 34.388 113.745 34.82C112.881 35.228 111.825 35.432 110.577 35.432C109.281 35.432 108.093 35.204 107.013 34.748C105.957 34.292 105.117 33.632 104.493 32.768C103.869 31.88 103.557 30.836 103.557 29.636C103.557 28.388 103.905 27.308 104.601 26.396C105.321 25.46 106.281 24.74 107.481 24.236C108.681 23.732 110.001 23.48 111.441 23.48C112.737 23.48 114.069 23.696 115.437 24.128C115.365 21.368 114.189 19.988 111.909 19.988C110.085 19.988 108.753 20.804 107.913 22.436L104.349 20.384C105.021 18.992 106.053 17.9 107.445 17.108C108.837 16.292 110.469 15.884 112.341 15.884ZM115.437 27.44C114.237 27.152 113.193 27.008 112.305 27.008C111.129 27.008 110.217 27.224 109.569 27.656C108.921 28.064 108.597 28.652 108.597 29.42C108.597 30.116 108.849 30.656 109.353 31.04C109.881 31.424 110.553 31.616 111.369 31.616C112.449 31.616 113.397 31.316 114.213 30.716C115.029 30.092 115.437 29.24 115.437 28.16V27.44ZM133.166 31.076C134.606 31.076 135.758 30.368 136.622 28.952L140.438 31.184C139.838 32.576 138.89 33.632 137.594 34.352C136.298 35.072 134.822 35.432 133.166 35.432C131.51 35.432 129.962 35.06 128.522 34.316C127.082 33.548 125.918 32.432 125.03 30.968C124.142 29.48 123.698 27.716 123.698 25.676C123.698 23.612 124.142 21.848 125.03 20.384C125.918 18.896 127.082 17.78 128.522 17.036C129.962 16.268 131.51 15.884 133.166 15.884C134.822 15.884 136.298 16.244 137.594 16.964C138.89 17.684 139.838 18.74 140.438 20.132L136.622 22.364C135.782 20.972 134.63 20.276 133.166 20.276C131.87 20.276 130.826 20.768 130.034 21.752C129.266 22.712 128.882 24.02 128.882 25.676C128.882 27.308 129.278 28.616 130.07 29.6C130.862 30.584 131.894 31.076 133.166 31.076ZM151.022 15.884C152.678 15.884 154.142 16.256 155.414 17C156.71 17.72 157.706 18.752 158.402 20.096C159.122 21.416 159.482 22.94 159.482 24.668C159.482 25.436 159.41 26.216 159.266 27.008H146.882C147.098 28.4 147.602 29.456 148.394 30.176C149.186 30.872 150.17 31.22 151.346 31.22C152.186 31.22 152.93 31.04 153.578 30.68C154.25 30.296 154.766 29.732 155.126 28.988L158.798 31.148C158.294 32.516 157.322 33.572 155.882 34.316C154.466 35.06 152.882 35.432 151.13 35.432C149.45 35.432 147.89 35.06 146.45 34.316C145.01 33.572 143.846 32.456 142.958 30.968C142.094 29.48 141.662 27.692 141.662 25.604C141.662 23.54 142.094 21.776 142.958 20.312C143.846 18.848 144.998 17.744 146.414 17C147.83 16.256 149.366 15.884 151.022 15.884ZM150.878 19.952C149.894 19.952 149.054 20.264 148.358 20.888C147.662 21.512 147.194 22.388 146.954 23.516H154.37C154.274 22.364 153.902 21.488 153.254 20.888C152.63 20.264 151.838 19.952 150.878 19.952ZM171.673 11.492C170.785 11.492 170.113 11.816 169.657 12.464C169.201 13.112 168.973 14.168 168.973 15.632V16.352H173.833V20.528H168.973V35H163.969V20.528H160.765V16.352H163.969V15.452C163.969 12.644 164.641 10.556 165.985 9.188C167.329 7.82 169.081 7.136 171.241 7.136C172.297 7.136 173.233 7.292 174.049 7.604C174.865 7.916 175.513 8.324 175.993 8.828L174.085 12.428C173.341 11.804 172.537 11.492 171.673 11.492ZM188.623 16.352H193.627V35H189.199C189.103 33.56 189.007 32.588 188.911 32.084C188.287 33.212 187.471 34.052 186.463 34.604C185.455 35.156 184.303 35.432 183.007 35.432C180.919 35.432 179.275 34.76 178.075 33.416C176.875 32.072 176.275 30.104 176.275 27.512V16.352H181.279V25.856C181.279 29.288 182.383 31.004 184.591 31.004C185.791 31.004 186.763 30.536 187.507 29.6C188.251 28.664 188.623 27.356 188.623 25.676V16.352ZM203.293 35H198.289V7.604H203.293V35ZM240.161 8.648H244.121V35H239.153V18.008L232.457 27.98H229.721L222.989 17.936V35H218.057V8.648H222.197L231.197 22.292L240.161 8.648ZM257.115 15.884C259.635 15.884 261.603 16.604 263.019 18.044C264.435 19.46 265.143 21.488 265.143 24.128V35H260.931C260.907 34.808 260.871 34.496 260.823 34.064C260.799 33.608 260.751 33.212 260.679 32.876C260.127 33.74 259.407 34.388 258.519 34.82C257.655 35.228 256.599 35.432 255.351 35.432C254.055 35.432 252.867 35.204 251.787 34.748C250.731 34.292 249.891 33.632 249.267 32.768C248.643 31.88 248.331 30.836 248.331 29.636C248.331 28.388 248.679 27.308 249.375 26.396C250.095 25.46 251.055 24.74 252.255 24.236C253.455 23.732 254.775 23.48 256.215 23.48C257.511 23.48 258.843 23.696 260.211 24.128C260.139 21.368 258.963 19.988 256.683 19.988C254.859 19.988 253.527 20.804 252.687 22.436L249.123 20.384C249.795 18.992 250.827 17.9 252.219 17.108C253.611 16.292 255.243 15.884 257.115 15.884ZM260.211 27.44C259.011 27.152 257.967 27.008 257.079 27.008C255.903 27.008 254.991 27.224 254.343 27.656C253.695 28.064 253.371 28.652 253.371 29.42C253.371 30.116 253.623 30.656 254.127 31.04C254.655 31.424 255.327 31.616 256.143 31.616C257.223 31.616 258.171 31.316 258.987 30.716C259.803 30.092 260.211 29.24 260.211 28.16V27.44ZM274.555 35H269.551V7.604H274.555V35ZM284.188 35H279.184V7.604H284.188V35Z" fill="#1B1B1F"/>
<circle cx="22" cy="22" r="22" fill="url(#paint0_radial_1088_1283)"/>
<path d="M20.2458 6.73929C20.4467 6.7101 20.5578 6.66248 20.6552 6.68398C21.3751 6.8499 22.1163 6.95897 22.8028 7.21706C24.3294 7.79161 24.9808 9.19573 24.579 10.8963C24.4587 11.4048 24.3157 11.9087 24.1604 12.5032C24.7525 12.0393 25.2609 11.6261 25.7844 11.2359C27.0797 10.2711 28.4693 9.47686 30.0826 9.24182C30.8467 9.12967 31.6534 9.10202 32.4114 9.22185C34.151 9.4953 34.9029 10.9163 34.7492 12.62C34.5559 14.76 33.5894 16.5973 32.3946 18.3179C30.8802 20.4994 29.0766 22.3751 26.6505 23.5365C25.1497 24.2555 23.5927 24.638 21.9413 24.1218C21.5243 23.9912 21.1148 23.8038 20.7404 23.5764C19.9764 23.1094 19.6826 22.3444 19.8942 21.4641C20.1164 20.5362 20.6628 19.8096 21.3553 19.1874C21.4451 19.1075 21.5745 19.0722 21.7998 18.96C21.6902 19.4808 21.6004 19.9018 21.5121 20.3227C21.4649 20.547 21.3964 20.7682 21.3751 20.9956C21.3142 21.6638 21.5517 21.9511 22.2122 22.0387C22.8576 22.1232 23.4542 21.9757 24.0204 21.6654C25.372 20.9249 26.4359 19.8572 27.4039 18.6728C28.8178 16.943 29.9807 15.0595 30.7782 12.9626C30.9898 12.4034 31.1359 11.8135 31.2531 11.2251C31.3916 10.5292 31.0522 10.2373 30.349 10.3633C28.7433 10.6521 27.4648 11.5661 26.2684 12.5939C23.8225 14.6955 21.7389 17.1227 20.0981 19.9187C18.5898 22.4872 17.051 25.0405 15.6234 27.6567C14.6538 29.4341 14.0252 31.3636 13.7315 33.3868C13.5671 34.5206 13.6889 35.619 14.1333 36.6775C14.3327 37.1522 14.3144 37.1783 13.7924 37.1614C11.2049 37.0707 9.32063 34.9538 9.43326 32.2961C9.51849 30.3036 10.2734 28.5323 11.1501 26.801C13.039 23.0741 15.322 19.5822 17.497 16.0274C18.6187 14.1931 19.6796 12.325 20.4543 10.3064C20.5669 10.013 20.6658 9.71037 20.7419 9.40619C20.9763 8.47216 21.194 7.53659 20.2458 6.73929Z" fill="white"/>
<defs>
<radialGradient id="paint0_radial_1088_1283" cx="0" cy="0" r="1" gradientUnits="userSpaceOnUse" gradientTransform="translate(26.8287 35.5536) rotate(-103.552) scale(43.2396)">
<stop offset="0.614985" stop-color="#CF2129"/>
<stop offset="0.887243" stop-color="#EE5C64"/>
</radialGradient>
</defs>
</svg>
