<svg width="29" height="29" viewBox="0 0 29 29"  xmlns="http://www.w3.org/2000/svg">
<path d="M14.5 14.5C17.503 14.5 19.9375 12.0655 19.9375 9.0625C19.9375 6.05945 17.503 3.625 14.5 3.625C11.497 3.625 9.0625 6.05945 9.0625 9.0625C9.0625 12.0655 11.497 14.5 14.5 14.5ZM18.125 9.0625C18.125 11.0645 16.502 12.6875 14.5 12.6875C12.498 12.6875 10.875 11.0645 10.875 9.0625C10.875 7.06047 12.498 5.4375 14.5 5.4375C16.502 5.4375 18.125 7.06047 18.125 9.0625Z" />
<path d="M25.375 23.5625C25.375 25.375 23.5625 25.375 23.5625 25.375H5.4375C5.4375 25.375 3.625 25.375 3.625 23.5625C3.625 21.75 5.4375 16.3125 14.5 16.3125C23.5625 16.3125 25.375 21.75 25.375 23.5625ZM23.5625 23.5562C23.5599 23.1089 23.2838 21.7689 22.0543 20.5394C20.8721 19.3572 18.649 18.125 14.5 18.125C10.351 18.125 8.12789 19.3572 6.94568 20.5394C5.71618 21.7689 5.44008 23.1089 5.4375 23.5562H23.5625Z" />
</svg>
